<?xml version="1.0" encoding="utf-8"?>
<!-- Generator: Adobe Illustrator 15.1.0, SVG Export Plug-In . SVG Version: 6.00 Build 0)  -->
<!DOCTYPE svg PUBLIC "-//W3C//DTD SVG 1.1//EN" "http://www.w3.org/Graphics/SVG/1.1/DTD/svg11.dtd">
<svg version="1.1" id="Layer_1" xmlns="http://www.w3.org/2000/svg" xmlns:xlink="http://www.w3.org/1999/xlink" x="0px" y="0px"
	 width="24px" height="24px" viewBox="0 0 24 24" enable-background="new 0 0 24 24" xml:space="preserve">
<path fill="#FFFFFF" stroke="#333333" stroke-width="0.5" stroke-miterlimit="10" d="M18.073,22.085"/>
<path fill="#FFFFFF" stroke="#231F20" stroke-width="0.5" stroke-miterlimit="10" d="M2.46,22.473"/>
<path fill="none" stroke="#333333" stroke-miterlimit="10" d="M19.95,17.102c0,1.209-1.179,2.189-2.627,2.189H6.72
	c-1.453,0-2.628-0.98-2.628-2.189l0,0c0-1.211,1.175-2.192,2.628-2.192h10.603C18.771,14.91,19.95,15.891,19.95,17.102L19.95,17.102
	z"/>
<path fill="none" stroke="#333333" stroke-miterlimit="10" d="M19.95,12.667c0,1.198-1.179,2.169-2.627,2.169H6.72
	c-1.453,0-2.628-0.971-2.628-2.169l0,0c0-1.2,1.175-2.171,2.628-2.171h10.603C18.771,10.498,19.95,11.467,19.95,12.667L19.95,12.667
	z"/>
<path fill="none" stroke="#333333" stroke-miterlimit="10" d="M19.95,8.436c0,1.137-1.179,2.06-2.627,2.06H6.72
	c-1.453,0-2.628-0.923-2.628-2.06l0,0c0-1.139,1.175-2.061,2.628-2.061h10.603C18.771,6.377,19.95,7.297,19.95,8.436L19.95,8.436z"
	/>
</svg>
