<?xml version="1.0" encoding="utf-8"?>
<!-- Generator: Adobe Illustrator 15.1.0, SVG Export Plug-In . SVG Version: 6.00 Build 0)  -->
<!DOCTYPE svg PUBLIC "-//W3C//DTD SVG 1.1//EN" "http://www.w3.org/Graphics/SVG/1.1/DTD/svg11.dtd">
<svg version="1.1"
	 id="svg3117" sodipodi:docname="icon.svg" inkscape:version="0.48.2 r9819" xmlns:sodipodi="http://sodipodi.sourceforge.net/DTD/sodipodi-0.dtd" xmlns:inkscape="http://www.inkscape.org/namespaces/inkscape" xmlns:rdf="http://www.w3.org/1999/02/22-rdf-syntax-ns#" xmlns:svg="http://www.w3.org/2000/svg" xmlns:cc="http://creativecommons.org/ns#" xmlns:dc="http://purl.org/dc/elements/1.1/" inkscape:export-filename="C:\Users\ajay\Desktop\32x32 black in white\lti\icon.png" inkscape:export-xdpi="90" inkscape:export-ydpi="90"
	 xmlns="http://www.w3.org/2000/svg" xmlns:xlink="http://www.w3.org/1999/xlink" x="0px" y="0px" width="32px" height="32px"
	 viewBox="0 0 32 32" enable-background="new 0 0 32 32" xml:space="preserve">
<sodipodi:namedview  bordercolor="#666666" pagecolor="#ffffff" id="base" borderopacity="1.0" inkscape:pageopacity="0.0" inkscape:zoom="21.28125" inkscape:pageshadow="2" inkscape:cx="16.955634" inkscape:cy="16.14128" inkscape:current-layer="layer1" showgrid="true" inkscape:grid-bbox="true" inkscape:document-units="px" inkscape:snap-global="false" inkscape:window-width="1280" inkscape:window-height="949" inkscape:window-x="-9" inkscape:window-y="-9" inkscape:window-maximized="1">
	<inkscape:grid  type="xygrid" id="grid3125"></inkscape:grid>
</sodipodi:namedview>
<g id="layer1" inkscape:label="Layer 1" inkscape:groupmode="layer">
	
		<path id="rect4315" inkscape:connector-curvature="0" sodipodi:nodetypes="ccsscccccccccscc" fill="none" stroke="#333333" stroke-linecap="round" stroke-linejoin="round" d="
		M7.45,7.705l8.041,0.051c-0.702-1.217-1.481-3.535-0.469-5.398c0.927-1.707,6.289-2.263,6.993,0.947
		c0.25,1.14,0.164,3.162-0.938,4.396l7.895,0.056v6.753c-7.593-2.003-6.89,7.329,0,5.66l-0.051,7.797h-7.684
		c4.415-7.516-9.8-7.279-5.483,0H7.45l0.048-7.314c-4.023,1.991-6.728-0.106-6.502-2.566c0.146-1.602,1.119-3.962,6.404-2.384
		L7.45,7.705z"/>
</g>
</svg>
