<?xml version="1.0" encoding="UTF-8" standalone="no"?>
<!-- Created with Inkscape (http://www.inkscape.org/) -->

<svg
   xmlns:dc="http://purl.org/dc/elements/1.1/"
   xmlns:cc="http://creativecommons.org/ns#"
   xmlns:rdf="http://www.w3.org/1999/02/22-rdf-syntax-ns#"
   xmlns:svg="http://www.w3.org/2000/svg"
   xmlns="http://www.w3.org/2000/svg"
   xmlns:sodipodi="http://sodipodi.sourceforge.net/DTD/sodipodi-0.dtd"
   xmlns:inkscape="http://www.inkscape.org/namespaces/inkscape"
   width="16px"
   height="16px"
   id="svg2985"
   version="1.1"
   inkscape:version="0.48.2 r9819"
   sodipodi:docname="agg_ mean.svg"
   inkscape:export-filename="C:\Users\ajay\Desktop\new work\agg_ mean.png"
   inkscape:export-xdpi="90"
   inkscape:export-ydpi="90">
  <defs
     id="defs2987" />
  <sodipodi:namedview
     id="base"
     pagecolor="#ffffff"
     bordercolor="#666666"
     borderopacity="1.0"
     inkscape:pageopacity="0.0"
     inkscape:pageshadow="2"
     inkscape:zoom="47.9375"
     inkscape:cx="8"
     inkscape:cy="8.3263378"
     inkscape:current-layer="layer1"
     showgrid="true"
     inkscape:grid-bbox="true"
     inkscape:document-units="px"
     inkscape:snap-global="false"
     inkscape:window-width="1441"
     inkscape:window-height="987"
     inkscape:window-x="465"
     inkscape:window-y="0"
     inkscape:window-maximized="0">
    <inkscape:grid
       type="xygrid"
       id="grid2993" />
  </sodipodi:namedview>
  <metadata
     id="metadata2990">
    <rdf:RDF>
      <cc:Work
         rdf:about="">
        <dc:format>image/svg+xml</dc:format>
        <dc:type
           rdf:resource="http://purl.org/dc/dcmitype/StillImage" />
        <dc:title></dc:title>
      </cc:Work>
    </rdf:RDF>
  </metadata>
  <g
     id="layer1"
     inkscape:label="Layer 1"
     inkscape:groupmode="layer">
    <g
       transform="matrix(1.022807,0,0,0.89115733,0,0.36648997)"
       style="font-size:30.47715759px;font-style:normal;font-variant:normal;font-weight:normal;font-stretch:normal;line-height:125%;letter-spacing:0px;word-spacing:0px;fill:#000000;fill-opacity:1;stroke:none;font-family:Gabriola;-inkscape-font-specification:Gabriola"
       id="text3775">
      <path
         d="M 2.8782974,4.9054877 C 3.220569,4.7914069 3.5454798,4.687237 3.8530308,4.5929778 4.1605781,4.4987392 4.4408446,4.4181315 4.6938312,4.3511547 4.9468125,4.2841989 5.1663133,4.233354 5.3523343,4.1986201 5.5383486,4.1639071 5.6834423,4.1465461 5.787616,4.1465351 5.9413868,4.1465458 6.0864805,4.1688681 6.2228976,4.2135011 6.3593064,4.2581561 6.4907588,4.3449642 6.6172554,4.473926 6.7437428,4.602909 6.8677545,4.781486 6.989291,5.0096577 7.1108175,5.2378492 7.2335892,5.5329972 7.3576062,5.8951025 7.506415,6.3316328 7.6552291,6.7445919 7.804049,7.1339811 7.9528573,7.5233857 8.0967109,7.9115425 8.2356103,8.2984525 8.5530742,7.6684795 8.8693041,7.0943051 9.1843011,6.5759276 9.4992838,6.0575668 9.8167539,5.616085 10.136712,5.2514809 10.456654,4.886896 10.781565,4.6041492 11.111446,4.4032397 11.441308,4.2023511 11.77986,4.1019016 12.127103,4.1018908 c 0.223211,1.08e-5 0.419149,0.033494 0.587816,0.1004496 0.168645,0.066977 0.311259,0.1550254 0.427841,0.2641453 0.11656,0.1091408 0.203368,0.2368729 0.260425,0.3831967 0.05703,0.1463439 0.08556,0.2963981 0.08557,0.4501631 -1.1e-5,0.2083493 -0.0521,0.4154489 -0.156255,0.6212995 -0.104181,0.2058684 -0.262916,0.380725 -0.476205,0.5245702 l -0.05953,0 c -0.0893,-0.1091219 -0.182308,-0.1971703 -0.279027,-0.2641453 -0.09674,-0.066958 -0.194709,-0.1190426 -0.293908,-0.156255 -0.09922,-0.037195 -0.197189,-0.061997 -0.293908,-0.074407 -0.09674,-0.012392 -0.189748,-0.018593 -0.279027,-0.018602 -0.292677,9e-6 -0.574184,0.083097 -0.844521,0.2492639 C 10.53602,6.3477542 10.274355,6.5784161 10.021379,6.873556 9.7683873,7.168712 9.5216039,7.517185 9.2810284,7.9189761 9.0404383,8.3207811 8.8010957,8.7597827 8.5629996,9.2359822 c 0.2331356,0.6399063 0.4476759,1.2029198 0.6436217,1.6890418 0.1959313,0.48613 0.3807088,0.90653 0.554333,1.261201 0.1736087,0.354676 0.3422647,0.651064 0.5059687,0.889165 0.163687,0.238104 0.329863,0.429082 0.498527,0.572935 0.168648,0.143855 0.344744,0.245544 0.528291,0.305069 0.183528,0.05953 0.384427,0.08929 0.602698,0.08929 0.148804,1e-6 0.286457,-0.005 0.412959,-0.01488 0.126482,-0.0099 0.250494,-0.02604 0.372036,-0.04837 0.121521,-0.02232 0.249253,-0.05332 0.383197,-0.09301 0.133921,-0.03968 0.282735,-0.08929 0.446442,-0.148814 l 0.148815,0.424121 c -0.238115,0.163696 -0.493579,0.31375 -0.766394,0.450163 -0.272837,0.136413 -0.548143,0.252984 -0.825919,0.349713 -0.277796,0.09673 -0.549382,0.171137 -0.814758,0.223222 -0.265394,0.05208 -0.512178,0.07813 -0.740351,0.07813 -0.322439,0 -0.6113861,-0.07813 -0.8668427,-0.234382 C 9.3901535,14.872322 9.1470904,14.624298 8.9164355,14.284506 8.6857667,13.944714 8.4538648,13.510673 8.2207289,12.982381 7.9875806,12.454093 7.7296362,11.817913 7.4468948,11.073838 7.094696,11.698861 6.746223,12.271796 6.4014747,12.792643 c -0.344757,0.520851 -0.6907498,0.968534 -1.0379794,1.343048 -0.3472362,0.374517 -0.6957092,0.665944 -1.04542,0.874284 -0.3497154,0.20834 -0.7031489,0.31251 -1.0603015,0.31251 -0.2182619,0 -0.40924,-0.02976 -0.5729349,-0.08929 C 2.5211428,15.17367 2.3847298,15.094303 2.2755997,14.995094 2.1664692,14.895884 2.0833813,14.780553 2.0263359,14.6491 c -0.057045,-0.131452 -0.085568,-0.269105 -0.085568,-0.412959 1e-7,-0.168655 0.037204,-0.339792 0.1116107,-0.513409 0.074407,-0.173615 0.1860176,-0.339791 0.334832,-0.498528 0.267865,0.09921 0.5072077,0.168658 0.7180288,0.20834 0.2108189,0.03969 0.4030371,0.05953 0.5766552,0.05953 0.3174684,10e-7 0.6225373,-0.07937 0.9152076,-0.238103 0.2926651,-0.158733 0.5778922,-0.383195 0.8556819,-0.673385 0.2777829,-0.290185 0.553089,-0.641138 0.8259191,-1.05286 C 6.5515246,11.116006 6.8268306,10.657163 7.104622,10.15119 7.0153285,9.9130921 6.9247999,9.6675488 6.833036,9.4145594 6.7412625,9.1615809 6.6432933,8.8949556 6.5391279,8.6146828 6.4349535,8.3344225 6.3258232,8.0367943 6.2117366,7.7217973 6.0976416,7.4068147 5.9761101,7.0707428 5.8471416,6.7135808 5.733047,6.4110003 5.6201963,6.164217 5.5085892,5.97323 5.3969752,5.7822608 5.2779239,5.6322066 5.151435,5.5230669 5.0249399,5.4139459 4.888527,5.3395388 4.7421959,5.2998455 4.5958593,5.2601713 4.4334039,5.2403294 4.2548292,5.2403198 4.096092,5.2403294 3.9088342,5.2589312 3.6930554,5.2961251 3.4772733,5.3333382 3.2428911,5.3792226 2.9899081,5.4337783 z"
         id="path3783"
         inkscape:connector-curvature="0" />
    </g>
    <path
       style="fill:#000000;fill-opacity:1;stroke:#000000;stroke-width:0;stroke-linecap:round;stroke-linejoin:round;stroke-miterlimit:4;stroke-opacity:0.9033613"
       d="m 3.0039113,2.0234681 10.9934817,0 -1.001304,0.984521 -10.972621,-0.02051 z"
       id="rect3779"
       inkscape:connector-curvature="0"
       sodipodi:nodetypes="ccccc" />
  </g>
</svg>
