<?xml version="1.0" encoding="utf-8"?>
<!-- Generator: Adobe Illustrator 15.1.0, SVG Export Plug-In . SVG Version: 6.00 Build 0)  -->
<!DOCTYPE svg PUBLIC "-//W3C//DTD SVG 1.1//EN" "http://www.w3.org/Graphics/SVG/1.1/DTD/svg11.dtd">
<svg version="1.1" id="Layer_1" xmlns="http://www.w3.org/2000/svg" xmlns:xlink="http://www.w3.org/1999/xlink" x="0px" y="0px"
	 width="24px" height="24px" viewBox="0 0 24 24" enable-background="new 0 0 24 24" xml:space="preserve">
<path fill="#FFFFFF" stroke="#231F20" stroke-width="0.5" stroke-miterlimit="10" d="M13.43,19.837"/>
<path fill="#FFFFFF" stroke="#231F20" stroke-width="0.5" stroke-miterlimit="10" d="M3.526,19.837"/>
<path d="M19.062,21.922L19.062,21.922c0,0.248-0.568,0.266-0.832,0.266L5.327,22.373l0,0c-1.308,0-2.1-1.008-2.368-2.535V3.603
	C3.134,2.391,4.02,1.627,5.327,1.627l0,0h11.409l0,0c0.195,0,0.363,0.114,0.437,0.276c0.024,0.054,0.037,0.112,0.037,0.175l0,0
	l0.058,3.203l0.85-0.045h0.474l0,0c0.132,0,0.252,0.052,0.339,0.134c0.084,0.082,0.135,0.193,0.135,0.317l0,0v16.235H19.062z
	 M3.433,19.909l0.121,0.435l0.154,0.516c0.472,0.812,0.558,0.845,1.46,0.953l1.707-0.037L6.919,5.772L4.968,5.803L4.477,5.678
	C3.644,5.311,3.875,5.456,3.478,5.172L3.433,19.909z M16.656,5.236V2.25H4.998l0,0l0,0c-0.794,0-1.438,0.668-1.438,1.492
	c0,0.826,0.643,1.494,1.438,1.494H16.98H16.656z M18.494,5.875L7.531,5.783l0.023,16.059l10.957-0.076L18.494,5.875z"/>
<line fill="none" stroke="#000000" stroke-width="0.2" stroke-miterlimit="10" x1="3.812" y1="4.844" x2="16.656" y2="4.844"/>
<line fill="none" stroke="#000000" stroke-width="0.2" stroke-miterlimit="10" x1="3.812" y1="2.531" x2="16.656" y2="2.531"/>
<line fill="none" stroke="#000000" stroke-width="0.2" stroke-miterlimit="10" x1="3.812" y1="3.156" x2="16.656" y2="3.156"/>
<line fill="none" stroke="#000000" stroke-width="0.2" stroke-miterlimit="10" x1="3.812" y1="3.906" x2="16.656" y2="3.906"/>
</svg>
