<?xml version="1.0" encoding="utf-8"?>
<!-- Generator: Adobe Illustrator 15.1.0, SVG Export Plug-In . SVG Version: 6.00 Build 0)  -->
<!DOCTYPE svg PUBLIC "-//W3C//DTD SVG 1.1//EN" "http://www.w3.org/Graphics/SVG/1.1/DTD/svg11.dtd">
<svg version="1.1"
	 id="svg3117" sodipodi:docname="icon.svg" inkscape:version="0.48.2 r9819" xmlns:sodipodi="http://sodipodi.sourceforge.net/DTD/sodipodi-0.dtd" xmlns:inkscape="http://www.inkscape.org/namespaces/inkscape" xmlns:rdf="http://www.w3.org/1999/02/22-rdf-syntax-ns#" xmlns:svg="http://www.w3.org/2000/svg" xmlns:cc="http://creativecommons.org/ns#" xmlns:dc="http://purl.org/dc/elements/1.1/" inkscape:export-filename="C:\Users\ajay\Desktop\32x32 black in white\lti\icon.png" inkscape:export-xdpi="90" inkscape:export-ydpi="90"
	 xmlns="http://www.w3.org/2000/svg" xmlns:xlink="http://www.w3.org/1999/xlink" x="0px" y="0px" width="32px" height="32px"
	 viewBox="0 0 32 32" enable-background="new 0 0 32 32" xml:space="preserve">
<sodipodi:namedview  bordercolor="#666666" pagecolor="#ffffff" id="base" borderopacity="1.0" inkscape:pageopacity="0.0" inkscape:zoom="21.28125" inkscape:pageshadow="2" inkscape:cx="16.955634" inkscape:cy="16.14128" inkscape:current-layer="layer1" showgrid="true" inkscape:grid-bbox="true" inkscape:document-units="px" inkscape:snap-global="false" inkscape:window-width="1280" inkscape:window-height="949" inkscape:window-x="-9" inkscape:window-y="-9" inkscape:window-maximized="1">
	<inkscape:grid  type="xygrid" id="grid3125"></inkscape:grid>
</sodipodi:namedview>
<path fill="#333333" d="M25.484,30.427H7.516c-1.527,0-2.765-1.135-2.765-2.534V3.826c0-1.399,1.237-2.533,2.765-2.533h13.111
	c0.002,0,0.004,0,0.007,0h0.013l0,0c0.222,0,5.061,0.024,6.768,0.114c1.362,0.754,0.835,6.65,0.835,6.853l0,0v0.013
	c0,0.001,0,0.002,0,0.003v19.617C28.249,29.292,27.011,30.427,25.484,30.427z M27.373,8.552V3.417
	c-0.049-0.845-0.425-1.738-2.535-1.507h-4.714H7.076c-0.8,0-1.449,0.595-1.449,1.329V28.48c0,0.732,0.649,1.329,1.449,1.329h18.847
	c0.8,0,1.45-0.597,1.45-1.329V8.552z"/>
<path fill="#333333" d="M11.356,29.705c0,0.087-0.07,0.158-0.157,0.158l0,0c-0.087,0-0.157-0.071-0.157-0.158V1.452
	c0-0.088,0.07-0.159,0.157-0.159l0,0c0.086,0,0.157,0.071,0.157,0.159V29.705z"/>
<path fill="#333333" d="M24.312,8.219c0,0.225-0.182,0.407-0.406,0.407h-9.562c-0.224,0-0.406-0.182-0.406-0.407l0,0
	c0-0.224,0.182-0.406,0.406-0.406h9.562C24.131,7.812,24.312,7.995,24.312,8.219L24.312,8.219z"/>
<path fill="#333333" d="M24.312,11.219c0,0.225-0.182,0.407-0.406,0.407h-9.562c-0.224,0-0.406-0.182-0.406-0.407l0,0
	c0-0.224,0.182-0.406,0.406-0.406h9.562C24.131,10.812,24.312,10.995,24.312,11.219L24.312,11.219z"/>
<path fill="#333333" d="M24.312,14.219c0,0.225-0.182,0.407-0.406,0.407h-9.562c-0.224,0-0.406-0.182-0.406-0.407l0,0
	c0-0.224,0.182-0.406,0.406-0.406h9.562C24.131,13.812,24.312,13.995,24.312,14.219L24.312,14.219z"/>
</svg>
