<?xml version="1.0" encoding="utf-8"?>
<!-- Generator: Adobe Illustrator 15.1.0, SVG Export Plug-In . SVG Version: 6.00 Build 0)  -->
<!DOCTYPE svg PUBLIC "-//W3C//DTD SVG 1.1//EN" "http://www.w3.org/Graphics/SVG/1.1/DTD/svg11.dtd">
<svg version="1.1" id="Layer_1" xmlns="http://www.w3.org/2000/svg" xmlns:xlink="http://www.w3.org/1999/xlink" x="0px" y="0px"
	 width="24px" height="24px" viewBox="0 0 24 24" enable-background="new 0 0 24 24" xml:space="preserve">
<path fill="#FFFFFF" stroke="#231F20" stroke-width="0.5" stroke-miterlimit="10" d="M18.073,22.085"/>
<path fill="#FFFFFF" stroke="#231F20" stroke-width="0.5" stroke-miterlimit="10" d="M2.46,22.473"/>
<g>
	<path fill="none" stroke="#333333" stroke-miterlimit="10" d="M1.897,17.875c0,1.104,0.896,2,2,2h12c1.104,0,2-0.896,2-2v-12
		c0-1.104-0.896-2-2-2h-12c-1.104,0-2,0.896-2,2V17.875z"/>
</g>
<path fill="#FFFFFF" stroke="#333333" stroke-width="0.75" stroke-miterlimit="10" d="M7.37,9.139c0,0,4.457,3.104,5.968,6.819
	c0,0,0.585,0.529,1.062,0c0.476-0.53,5.278-8.569,7.533-10.082c0.318-0.504,0.187-0.663,0.187-0.663h-1.035
	c0,0-3.661,1.167-7.243,6.817C12.41,9.829,9.996,8.688,9.651,8.688L7.37,8.662V9.139z"/>
</svg>
