<?xml version="1.0" encoding="utf-8"?>
<!-- Generator: Adobe Illustrator 15.1.0, SVG Export Plug-In . SVG Version: 6.00 Build 0)  -->
<!DOCTYPE svg PUBLIC "-//W3C//DTD SVG 1.1//EN" "http://www.w3.org/Graphics/SVG/1.1/DTD/svg11.dtd">
<svg version="1.1" id="Layer_1" xmlns="http://www.w3.org/2000/svg" xmlns:xlink="http://www.w3.org/1999/xlink" x="0px" y="0px"
	 width="24px" height="24px" viewBox="0 0 24 24" enable-background="new 0 0 24 24" xml:space="preserve">
<g>
	<path fill="#333333" d="M168.486,48.768c0.908,0,1.652,0.744,1.652,1.651v11.558c0,0.907-0.744,1.65-1.652,1.65h-1.1h-1.102v1.101
		v1.899l-3.576-2.752l-0.275-0.248h-0.387h-9.795c-0.908,0-1.651-0.743-1.651-1.65V50.419c0-0.907,0.743-1.651,1.651-1.651H168.486
		 M168.486,47.667h-16.234c-1.514,0-2.752,1.239-2.752,2.752v11.558c0,1.515,1.238,2.751,2.752,2.751h9.795l5.34,4.129v-4.129h1.1
		c1.514,0,2.752-1.236,2.752-2.751V50.419C171.238,48.906,170,47.667,168.486,47.667L168.486,47.667z"/>
	<line fill="none" x1="168.297" y1="46.883" x2="168.297" y2="46.883"/>
	<path fill="#303A3F" d="M162.982,54.705h-10.189c-0.275,0-0.502-0.189-0.502-0.42v-0.031c0-0.23,0.227-0.42,0.502-0.42h10.189
		c0.275,0,0.502,0.189,0.502,0.42v0.031C163.49,54.516,163.264,54.705,162.982,54.705z"/>
	<path fill="#303A3F" d="M167.92,57.731h-14.896c-0.401,0-0.733-0.189-0.733-0.419v-0.033c0-0.229,0.332-0.42,0.733-0.42h14.896
		c0.402,0,0.732,0.19,0.732,0.42v0.033C168.66,57.542,168.328,57.731,167.92,57.731z"/>
	<path fill="#303A3F" d="M167.92,60.659h-14.896c-0.401,0-0.733-0.189-0.733-0.42v-0.032c0-0.23,0.332-0.42,0.733-0.42h14.896
		c0.402,0,0.732,0.189,0.732,0.42v0.032C168.66,60.47,168.328,60.659,167.92,60.659z"/>
	<path fill="#FFFFFF" d="M173.531,49.43l-5.873,5.25c0,0-2.016,0.519-2.119,0.519c-0.105,0-1.391-0.519-1.564-0.776
		c-0.174-0.26-0.488-1.01-0.488-1.207c0-0.199,0.035-0.901,0-0.901c-0.033,0-0.033-0.479,0-0.702
		c0.035-0.222,0.592-1.812,0.592-1.812s0.277-0.812,0.312-0.924c0.035-0.11,1.008-0.961,1.182-1.072s1.807-0.998,1.807-0.998
		l1.117-0.48l1.107-0.407h3.197L173.531,49.43z"/>
	<g>
		<path fill="#303A3F" d="M165.406,49.516l-1.279,3.431c-0.066,0.181,0.031,0.327,0.227,0.319l3.623-0.124
			c0.074-0.005,0.143-0.024,0.215-0.063l0.004,0.006c0.01-0.006,0.02-0.016,0.029-0.021l3.346-2.427l-0.578-0.812l-3.02,2.193
			c-0.121,0.09-0.291,0.057-0.379-0.065l-0.137-0.192c-0.088-0.122-0.059-0.293,0.062-0.383l3.016-2.188l-0.568-0.803l-3.047,2.208
			c-0.111,0.079-0.258,0.053-0.338-0.06l-0.172-0.238c-0.078-0.111-0.051-0.262,0.057-0.342l3.053-2.207l-0.607-0.864l-3.234,2.347
			C165.557,49.29,165.453,49.391,165.406,49.516z M165.793,50.149l1.717,2.417c0.102,0.148-0.07,0.383-0.295,0.391l-1.977,0.035
			c-0.012-0.035-0.016-0.071-0.035-0.101l-0.512-0.721c-0.004-0.006,0-0.016-0.004-0.016l0.646-1.849
			C165.41,50.096,165.691,50.002,165.793,50.149z"/>
		<path fill="#303A3F" d="M169.148,46.699l0.385-0.282c0.719-0.522,1.723-0.351,2.24,0.376l0.791,1.117
			c0.516,0.725,0.344,1.741-0.373,2.264l-0.387,0.284L169.148,46.699z"/>
	</g>
</g>
<path fill="#2C3E50" d="M19.776,7.256v-0.21c0-1.054-0.861-1.916-1.915-1.916h-4.79c-0.632,0-1.149-0.613-1.149-1.246V3.98
	c0-1.054-0.864-1.916-1.917-1.916H2.916C1.862,2.064,1,2.926,1,3.98v14.752c0,1.054,0.862,1.916,1.916,1.916l0,0h16.669
	c1.054,0,1.916-0.862,1.916-1.916v-9.58C21.501,8.157,20.734,7.352,19.776,7.256z M2.916,19.882c-0.632,0-1.149-0.518-1.149-1.149
	V3.98c0-0.632,0.518-1.15,1.149-1.15h7.089c0.632,0,1.148,0.518,1.148,1.15c0,1.054,0.864,1.916,1.917,1.916h4.79
	c0.632,0,1.149,0.517,1.149,1.149v0.192H5.982c-1.054,0-1.917,0.862-1.917,1.916v9.58C4.065,19.364,3.548,19.882,2.916,19.882
	L2.916,19.882z M20.734,18.732c0,0.632-0.517,1.149-1.149,1.149H4.449c0.249-0.326,0.383-0.728,0.383-1.149v-9.58
	c0-0.632,0.518-1.149,1.149-1.149h13.603c0.633,0,1.149,0.517,1.149,1.149V18.732z"/>
</svg>
