<?xml version="1.0" encoding="utf-8"?>
<!-- Generator: Adobe Illustrator 15.1.0, SVG Export Plug-In . SVG Version: 6.00 Build 0)  -->
<!DOCTYPE svg PUBLIC "-//W3C//DTD SVG 1.1//EN" "http://www.w3.org/Graphics/SVG/1.1/DTD/svg11.dtd">
<svg version="1.1"
	 id="svg3117" sodipodi:docname="icon.svg" inkscape:version="0.48.2 r9819" xmlns:sodipodi="http://sodipodi.sourceforge.net/DTD/sodipodi-0.dtd" xmlns:inkscape="http://www.inkscape.org/namespaces/inkscape" xmlns:rdf="http://www.w3.org/1999/02/22-rdf-syntax-ns#" xmlns:svg="http://www.w3.org/2000/svg" xmlns:cc="http://creativecommons.org/ns#" xmlns:dc="http://purl.org/dc/elements/1.1/" inkscape:export-filename="C:\Users\ajay\Desktop\32x32 black in white\lti\icon.png" inkscape:export-xdpi="90" inkscape:export-ydpi="90"
	 xmlns="http://www.w3.org/2000/svg" xmlns:xlink="http://www.w3.org/1999/xlink" x="0px" y="0px" width="32px" height="32px"
	 viewBox="0 0 32 32" enable-background="new 0 0 32 32" xml:space="preserve">
<sodipodi:namedview  bordercolor="#666666" pagecolor="#ffffff" id="base" borderopacity="1.0" inkscape:pageopacity="0.0" inkscape:zoom="21.28125" inkscape:pageshadow="2" inkscape:cx="16.955634" inkscape:cy="16.14128" inkscape:current-layer="layer1" showgrid="true" inkscape:grid-bbox="true" inkscape:document-units="px" inkscape:snap-global="false" inkscape:window-width="1280" inkscape:window-height="949" inkscape:window-x="-9" inkscape:window-y="-9" inkscape:window-maximized="1">
	<inkscape:grid  type="xygrid" id="grid3125"></inkscape:grid>
</sodipodi:namedview>
<path fill="none" stroke="#333333" stroke-linecap="round" stroke-linejoin="round" d="M30.791,19.25
	c0,4.649-4.421,8.417-9.875,8.417h-9.833c-5.454,0-9.875-3.768-9.875-8.417l0,0c0-4.648,4.421-8.417,9.875-8.417h9.833
	C26.37,10.833,30.791,14.602,30.791,19.25L30.791,19.25z"/>
<g>
	<path d="M10.665,22h-0.568l-1.264-4.561L7.569,22H7.001l-1.456-5.696h0.648l1.112,4.592l1.256-4.592h0.544l1.256,4.592l1.112-4.592
		h0.648L10.665,22z"/>
	<path d="M17.498,22H16.93l-1.264-4.561L14.402,22h-0.568l-1.457-5.696h0.648l1.112,4.592l1.255-4.592h0.545l1.256,4.592
		l1.111-4.592h0.648L17.498,22z"/>
	<path d="M24.328,22H23.76l-1.264-4.561L21.232,22h-0.568l-1.455-5.696h0.648l1.111,4.592l1.256-4.592h0.545l1.256,4.592
		l1.111-4.592h0.648L24.328,22z"/>
	<path d="M26.217,22v-0.752h0.752V22H26.217z"/>
</g>
</svg>
