<?xml version="1.0" encoding="utf-8"?>
<!-- Generator: Adobe Illustrator 15.1.0, SVG Export Plug-In . SVG Version: 6.00 Build 0)  -->
<!DOCTYPE svg PUBLIC "-//W3C//DTD SVG 1.1//EN" "http://www.w3.org/Graphics/SVG/1.1/DTD/svg11.dtd">
<svg version="1.1" id="Layer_1" xmlns="http://www.w3.org/2000/svg" xmlns:xlink="http://www.w3.org/1999/xlink" x="0px" y="0px"
	 width="24px" height="24px" viewBox="0 0 24 24" enable-background="new 0 0 24 24" xml:space="preserve">
<g>
	<path fill="#333333" d="M18.986,3.912c0.908,0,1.652,0.743,1.652,1.651V17.12c0,0.907-0.744,1.649-1.652,1.649h-1.1h-1.103v1.102
		v1.898l-3.576-2.752l-0.274-0.248h-0.387H2.752c-0.908,0-1.651-0.742-1.651-1.649V5.562c0-0.908,0.743-1.651,1.651-1.651
		L18.986,3.912 M18.986,2.811H2.752C1.239,2.811,0,4.049,0,5.562V17.12c0,1.515,1.239,2.751,2.752,2.751h9.796L17.889,24v-4.129h1.1
		c1.514,0,2.752-1.236,2.752-2.751V5.562C21.738,4.049,20.501,2.811,18.986,2.811L18.986,2.811z"/>
	<line fill="none" x1="18.798" y1="2.026" x2="18.798" y2="2.026"/>
	<path fill="#303A3F" d="M13.482,9.849H3.293c-0.275,0-0.502-0.19-0.502-0.42V9.397c0-0.23,0.227-0.419,0.502-0.419h10.189
		c0.275,0,0.502,0.189,0.502,0.419v0.032C13.99,9.659,13.764,9.849,13.482,9.849z"/>
	<path fill="#303A3F" d="M18.42,12.875H3.525c-0.402,0-0.734-0.189-0.734-0.419v-0.032c0-0.23,0.332-0.42,0.734-0.42H18.42
		c0.402,0,0.732,0.19,0.732,0.42v0.032C19.16,12.686,18.829,12.875,18.42,12.875z"/>
	<path fill="#303A3F" d="M18.42,15.803H3.525c-0.402,0-0.734-0.188-0.734-0.42v-0.031c0-0.23,0.332-0.42,0.734-0.42H18.42
		c0.402,0,0.732,0.188,0.732,0.42v0.031C19.16,15.613,18.829,15.803,18.42,15.803z"/>
	<path fill="#FFFFFF" d="M24.031,4.574l-5.873,5.25c0,0-2.016,0.518-2.119,0.518s-1.391-0.518-1.564-0.776
		c-0.174-0.259-0.486-1.01-0.486-1.208c0-0.198,0.035-0.901,0-0.901c-0.034,0-0.034-0.479,0-0.702
		c0.035-0.222,0.591-1.812,0.591-1.812s0.278-0.813,0.313-0.924c0.033-0.111,1.008-0.962,1.182-1.073
		c0.174-0.111,1.807-0.999,1.807-0.999l1.117-0.48l1.105-0.407h3.197L24.031,4.574z"/>
	<g>
		<path fill="#303A3F" d="M15.906,4.66l-1.279,3.43c-0.066,0.18,0.031,0.327,0.227,0.32l3.623-0.125
			c0.074-0.004,0.145-0.024,0.215-0.063l0.006,0.005c0.01-0.005,0.02-0.015,0.029-0.02L22.07,5.78l-0.577-0.812l-3.021,2.193
			c-0.121,0.089-0.291,0.057-0.379-0.065l-0.137-0.193c-0.089-0.122-0.059-0.292,0.062-0.382l3.016-2.188l-0.568-0.802L17.42,5.739
			c-0.111,0.079-0.259,0.053-0.338-0.059L16.91,5.442c-0.078-0.111-0.053-0.263,0.057-0.343l3.053-2.207l-0.607-0.864l-3.234,2.347
			C16.059,4.434,15.953,4.534,15.906,4.66z M16.294,5.293L18.01,7.71c0.102,0.147-0.07,0.382-0.295,0.39l-1.977,0.035
			c-0.012-0.035-0.016-0.071-0.035-0.101l-0.512-0.721c-0.004-0.006,0-0.016-0.004-0.016l0.646-1.848
			C15.911,5.239,16.191,5.146,16.294,5.293z"/>
		<path fill="#303A3F" d="M19.648,1.843l0.385-0.283c0.72-0.522,1.724-0.351,2.24,0.375l0.791,1.117
			c0.516,0.726,0.345,1.742-0.373,2.264l-0.387,0.285L19.648,1.843z"/>
	</g>
</g>
</svg>
