<?xml version="1.0" encoding="utf-8"?>
<!-- Generator: Adobe Illustrator 15.1.0, SVG Export Plug-In . SVG Version: 6.00 Build 0)  -->
<!DOCTYPE svg PUBLIC "-//W3C//DTD SVG 1.1//EN" "http://www.w3.org/Graphics/SVG/1.1/DTD/svg11.dtd">
<svg version="1.1" id="Layer_1" xmlns="http://www.w3.org/2000/svg" xmlns:xlink="http://www.w3.org/1999/xlink" x="0px" y="0px"
	 width="24px" height="24px" viewBox="0 0 24 24" enable-background="new 0 0 24 24" xml:space="preserve">
<path fill="#FFFFFF" stroke="#231F20" stroke-width="0.5" stroke-miterlimit="10" d="M13.429,19.837"/>
<path fill="#FFFFFF" stroke="#231F20" stroke-width="0.5" stroke-miterlimit="10" d="M3.526,19.837"/>
<path fill="#333333" d="M19.522,2.768c0.881,0,1.602,0.689,1.602,1.533v10.732c0,0.843-0.721,1.533-1.602,1.533h-1.065h-1.066v1.022
	v1.763l-3.467-2.555l-0.268-0.23h-0.373H3.792c-0.88,0-1.6-0.69-1.6-1.533V4.3c0-0.843,0.719-1.533,1.6-1.533H19.522 M19.522,1.745
	H3.792c-1.467,0-2.667,1.15-2.667,2.555v10.732c0,1.405,1.2,2.556,2.667,2.556h9.492l5.174,3.833v-3.833h1.065
	c1.467,0,2.667-1.15,2.667-2.556V4.3C22.189,2.895,20.989,1.745,19.522,1.745L19.522,1.745z"/>
</svg>
