<?xml version="1.0" encoding="utf-8"?>
<!-- Generator: Adobe Illustrator 15.1.0, SVG Export Plug-In . SVG Version: 6.00 Build 0)  -->
<!DOCTYPE svg PUBLIC "-//W3C//DTD SVG 1.1//EN" "http://www.w3.org/Graphics/SVG/1.1/DTD/svg11.dtd">
<svg version="1.1"
	 id="svg3117" sodipodi:docname="icon.svg" inkscape:version="0.48.2 r9819" xmlns:sodipodi="http://sodipodi.sourceforge.net/DTD/sodipodi-0.dtd" xmlns:inkscape="http://www.inkscape.org/namespaces/inkscape" xmlns:rdf="http://www.w3.org/1999/02/22-rdf-syntax-ns#" xmlns:svg="http://www.w3.org/2000/svg" xmlns:cc="http://creativecommons.org/ns#" xmlns:dc="http://purl.org/dc/elements/1.1/" inkscape:export-filename="C:\Users\ajay\Desktop\32x32 black in white\lti\icon.png" inkscape:export-xdpi="90" inkscape:export-ydpi="90"
	 xmlns="http://www.w3.org/2000/svg" xmlns:xlink="http://www.w3.org/1999/xlink" x="0px" y="0px" width="32px" height="32px"
	 viewBox="0 0 32 32" enable-background="new 0 0 32 32" xml:space="preserve">
<sodipodi:namedview  bordercolor="#666666" pagecolor="#ffffff" id="base" borderopacity="1.0" inkscape:pageopacity="0.0" inkscape:zoom="21.28125" inkscape:pageshadow="2" inkscape:cx="16.955634" inkscape:cy="16.14128" inkscape:current-layer="layer1" showgrid="true" inkscape:grid-bbox="true" inkscape:document-units="px" inkscape:snap-global="false" inkscape:window-width="1280" inkscape:window-height="949" inkscape:window-x="-9" inkscape:window-y="-9" inkscape:window-maximized="1">
	<inkscape:grid  type="xygrid" id="grid3125"></inkscape:grid>
</sodipodi:namedview>
<path d="M24.383,30.427H7.369c-1.446,0-2.618-1.146-2.618-2.56V3.559C4.751,2.146,5.923,1,7.369,1h12.415c0.002,0,0.004,0,0.007,0
	h0.012l0,0c0.21,0,0.388,0.103,0.507,0.253l6.434,6.288C26.895,7.658,27,7.832,27,8.037l0,0V8.05c0,0.001,0,0.002,0,0.003v19.814
	C27,29.28,25.828,30.427,24.383,30.427z M26.171,8.333h-6.178c-0.379,0-0.686-0.301-0.686-0.671V1.623H6.953
	c-0.757,0-1.372,0.601-1.372,1.342v25.496c0,0.74,0.615,1.343,1.372,1.343h17.845c0.758,0,1.373-0.603,1.373-1.343V8.333z"/>
<path fill="#333333" d="M11.371,23.044c0,0,2.186,1.522,2.928,3.344c0,0,0.287,0.26,0.521,0c0.234-0.261,2.589-4.202,3.695-4.944
	c0.156-0.248,0.091-0.326,0.091-0.326h-0.508c0,0-1.795,0.573-3.552,3.345c-0.703-1.08-1.887-1.64-2.056-1.64l-1.119-0.014V23.044z"
	/>
<path fill="#333333" d="M21.583,13.126c0,0.299-0.242,0.542-0.542,0.542H10.542c-0.299,0-0.542-0.243-0.542-0.542l0,0
	c0-0.299,0.243-0.542,0.542-0.542h10.499C21.341,12.584,21.583,12.827,21.583,13.126L21.583,13.126z"/>
<path fill="#333333" d="M21.583,15.126c0,0.299-0.242,0.542-0.542,0.542H10.542c-0.299,0-0.542-0.243-0.542-0.542l0,0
	c0-0.299,0.243-0.542,0.542-0.542h10.499C21.341,14.584,21.583,14.827,21.583,15.126L21.583,15.126z"/>
<path fill="#333333" d="M21.583,17.126c0,0.299-0.242,0.542-0.542,0.542H10.542c-0.299,0-0.542-0.243-0.542-0.542l0,0
	c0-0.3,0.243-0.542,0.542-0.542h10.499C21.341,16.584,21.583,16.826,21.583,17.126L21.583,17.126z"/>
</svg>
