<?xml version="1.0" encoding="utf-8"?>
<!-- Generator: Adobe Illustrator 15.1.0, SVG Export Plug-In . SVG Version: 6.00 Build 0)  -->
<!DOCTYPE svg PUBLIC "-//W3C//DTD SVG 1.1//EN" "http://www.w3.org/Graphics/SVG/1.1/DTD/svg11.dtd">
<svg version="1.1"
	 id="svg10452" sodipodi:docname="icon.svg" inkscape:version="0.48.2 r9819" xmlns:sodipodi="http://sodipodi.sourceforge.net/DTD/sodipodi-0.dtd" xmlns:inkscape="http://www.inkscape.org/namespaces/inkscape" xmlns:rdf="http://www.w3.org/1999/02/22-rdf-syntax-ns#" xmlns:svg="http://www.w3.org/2000/svg" xmlns:cc="http://creativecommons.org/ns#" xmlns:dc="http://purl.org/dc/elements/1.1/"
	 xmlns="http://www.w3.org/2000/svg" xmlns:xlink="http://www.w3.org/1999/xlink" x="0px" y="0px" width="32px" height="32px"
	 viewBox="0 0 32 32" enable-background="new 0 0 32 32" xml:space="preserve">
<sodipodi:namedview  bordercolor="#666666" pagecolor="#ffffff" id="base" borderopacity="1.0" inkscape:pageopacity="0.0" inkscape:zoom="21.28125" inkscape:pageshadow="2" inkscape:cx="17.083799" inkscape:cy="16" inkscape:current-layer="layer1" showgrid="true" inkscape:grid-bbox="true" inkscape:document-units="px" inkscape:snap-global="false" inkscape:window-width="1280" inkscape:window-height="949" inkscape:window-x="-9" inkscape:window-y="-9" inkscape:window-maximized="1">
	<inkscape:grid  type="xygrid" id="grid10460"></inkscape:grid>
</sodipodi:namedview>
<path id="path8132" sodipodi:cx="3.5712187" sodipodi:type="arc" sodipodi:cy="3.3597651" sodipodi:rx="2.5609398" sodipodi:ry="2.3729808" fill="none" stroke="#333333" d="
	M10.938,7.526c0,2.436-1.985,4.41-4.435,4.41c-2.449,0-4.434-1.975-4.434-4.41s1.985-4.41,4.434-4.41
	C8.953,3.116,10.938,5.09,10.938,7.526z"/>
<path id="path8138" sodipodi:cx="3.5712187" sodipodi:type="arc" sodipodi:cy="3.3597651" sodipodi:rx="2.5609398" sodipodi:ry="2.3729808" fill="none" stroke="#333333" d="
	M29.359,7.273c0,2.435-1.984,4.408-4.43,4.408c-2.446,0-4.43-1.973-4.43-4.408s1.983-4.408,4.43-4.408
	C27.375,2.865,29.359,4.838,29.359,7.273z"/>
<path id="path8140" sodipodi:cx="3.5712187" sodipodi:type="arc" sodipodi:cy="3.3597651" sodipodi:rx="2.5609398" sodipodi:ry="2.3729808" fill="none" stroke="#333333" d="
	M29.842,24.518c0,2.435-1.961,4.408-4.379,4.408s-4.379-1.974-4.379-4.408c0-2.436,1.961-4.409,4.379-4.409
	S29.842,22.082,29.842,24.518z"/>
<rect id="rect8142" x="11.312" y="7.928" fill="none" stroke="#333333" stroke-width="0.75" stroke-linecap="round" width="9.188" height="0.656"/>
<rect id="rect8142_1_" x="15.296" y="25.464" fill="none" stroke="#333333" stroke-width="0.75" stroke-linecap="round" width="5.505" height="0.531"/>
<rect id="rect8144" x="15.296" y="8.828" fill="none" stroke="#333333" stroke-width="0.75" stroke-linecap="round" width="0.71" height="17.131"/>
</svg>
