<?xml version="1.0" encoding="utf-8"?>
<!-- Generator: Adobe Illustrator 15.1.0, SVG Export Plug-In . SVG Version: 6.00 Build 0)  -->
<!DOCTYPE svg PUBLIC "-//W3C//DTD SVG 1.1//EN" "http://www.w3.org/Graphics/SVG/1.1/DTD/svg11.dtd">
<svg version="1.1"
	 id="svg9903" sodipodi:docname="icon.svg" inkscape:version="0.48.2 r9819" xmlns:sodipodi="http://sodipodi.sourceforge.net/DTD/sodipodi-0.dtd" xmlns:inkscape="http://www.inkscape.org/namespaces/inkscape" xmlns:rdf="http://www.w3.org/1999/02/22-rdf-syntax-ns#" xmlns:svg="http://www.w3.org/2000/svg" xmlns:cc="http://creativecommons.org/ns#" xmlns:dc="http://purl.org/dc/elements/1.1/"
	 xmlns="http://www.w3.org/2000/svg" xmlns:xlink="http://www.w3.org/1999/xlink" x="0px" y="0px" width="32px" height="32px"
	 viewBox="0 0 32 32" enable-background="new 0 0 32 32" xml:space="preserve">
<sodipodi:namedview  bordercolor="#666666" pagecolor="#ffffff" id="base" borderopacity="1.0" inkscape:pageopacity="0.0" inkscape:zoom="21.28125" inkscape:pageshadow="2" inkscape:cx="13.205242" inkscape:cy="16" inkscape:current-layer="layer1" showgrid="true" inkscape:grid-bbox="true" inkscape:document-units="px" inkscape:snap-global="false" inkscape:window-width="1280" inkscape:window-height="949" inkscape:window-x="-9" inkscape:window-y="-9" inkscape:window-maximized="1">
	<inkscape:grid  type="xygrid" id="grid9911"></inkscape:grid>
</sodipodi:namedview>
<path fill="#2C3E50" d="M30.232,7.333c-0.176-0.533-0.765-1.153-1.36-1.354l-6.459-2.043c-0.565-0.182-1.324-0.188-1.97-0.037
	c-0.345,0.082-0.654,0.207-0.906,0.37L2.141,16.456c-0.698,0.478-0.752,1.587-0.173,2.391l7.173,10.237
	c0.465,0.648,1.219,0.969,1.862,0.818c0.149-0.036,0.317-0.1,0.448-0.209l17.366-12.207c0.698-0.477,1.262-1.655,1.306-2.579
	l0.305-6.628l0,0C30.44,8.33,30.428,7.836,30.232,7.333z M29.417,8.308l-0.32,6.579c-0.022,0.683-0.48,1.522-0.867,1.77
	L10.865,28.863c-0.025,0.006-0.044,0.036-0.093,0.048c-0.224,0.052-0.572-0.101-0.802-0.412L2.798,18.261
	c-0.272-0.38-0.222-0.836-0.065-0.951L20.1,5.103c0.111-0.078,0.328-0.154,0.552-0.207c0.495-0.116,1.044-0.113,1.438,0.003
	l6.459,2.043c0.282,0.091,0.629,0.454,0.718,0.721C29.383,7.949,29.399,8.233,29.417,8.308z"/>
<path fill="#333333" d="M23.389,8.123c-1.533,0.358-2.483,1.886-2.125,3.422c0.358,1.535,1.888,2.483,3.423,2.125
	c1.535-0.359,2.485-1.887,2.127-3.422C26.484,8.73,24.951,7.758,23.389,8.123z M24.461,12.704c-0.991,0.232-1.976-0.4-2.201-1.366
	c-0.226-0.965,0.401-1.975,1.367-2.2c0.965-0.226,1.976,0.4,2.201,1.366C26.054,11.471,25.452,12.473,24.461,12.704z"/>
<path fill="#333333" d="M8.604,21.084c-0.099,0.023-0.209-0.003-0.258-0.097c-0.079-0.111-0.063-0.27,0.073-0.355l9.667-6.7
	c0.114-0.078,0.274-0.063,0.357,0.074c0.077,0.112,0.063,0.273-0.074,0.356l-9.667,6.698C8.648,21.049,8.628,21.079,8.604,21.084z"
	/>
<path fill="#333333" d="M9.786,22.792c-0.099,0.023-0.209-0.002-0.257-0.095c-0.079-0.111-0.063-0.271,0.073-0.357l9.668-6.7
	c0.111-0.077,0.271-0.063,0.355,0.074c0.08,0.114,0.064,0.273-0.074,0.357L9.885,22.77C9.835,22.781,9.811,22.787,9.786,22.792z"/>
<path fill="#333333" d="M10.975,24.527c-0.099,0.023-0.21-0.004-0.257-0.096c-0.079-0.114-0.064-0.273,0.073-0.357l9.668-6.699
	c0.111-0.079,0.271-0.063,0.355,0.072c0.079,0.113,0.062,0.273-0.073,0.357l-9.667,6.701C11.025,24.517,11,24.521,10.975,24.527z"/>
<path fill="#333333" d="M7.167,19.408c-0.099,0.022-0.209-0.003-0.257-0.095C6.831,19.2,6.846,19.04,6.983,18.955l9.667-6.699
	c0.112-0.078,0.272-0.063,0.357,0.074c0.076,0.112,0.062,0.272-0.073,0.356l-9.667,6.698C7.217,19.396,7.191,19.403,7.167,19.408z"
	/>
</svg>
