<?xml version="1.0" encoding="utf-8"?>
<!-- Generator: Adobe Illustrator 15.1.0, SVG Export Plug-In . SVG Version: 6.00 Build 0)  -->
<!DOCTYPE svg PUBLIC "-//W3C//DTD SVG 1.1//EN" "http://www.w3.org/Graphics/SVG/1.1/DTD/svg11.dtd">
<svg version="1.1" id="Layer_1" xmlns="http://www.w3.org/2000/svg" xmlns:xlink="http://www.w3.org/1999/xlink" x="0px" y="0px"
	 width="24px" height="24px" viewBox="0 0 24 24" enable-background="new 0 0 24 24" xml:space="preserve">
<g>
	<path fill="#333333" d="M-30.914,5.988c0.908,0,1.652,0.744,1.652,1.651v11.557c0,0.908-0.744,1.65-1.652,1.65h-1.1h-1.102v1.102
		v1.898l-3.576-2.752l-0.275-0.248h-0.387h-9.795c-0.908,0-1.651-0.742-1.651-1.65V7.639c0-0.907,0.743-1.651,1.651-1.651H-30.914
		 M-31.009,5.174l-16.101-0.021c-1.514,0-2.458,1.012-2.458,2.524l-0.021,11.518c0,1.516,0.861,2.459,2.375,2.459l9.896,0.104
		l4.875,3.436l0.354-3.52l1.146,0.082c1.514,0,2.584-1.109,2.584-2.625l-0.104-11.625C-28.463,5.995-29.495,5.174-31.009,5.174
		L-31.009,5.174z"/>
	<line fill="none" x1="-31.198" y1="4.39" x2="-31.198" y2="4.39"/>
	<path fill="#303A3F" d="M-36.418,11.925h-10.189c-0.275,0-0.502-0.189-0.502-0.42v-0.031c0-0.23,0.227-0.42,0.502-0.42h10.189
		c0.275,0,0.502,0.189,0.502,0.42v0.031C-35.91,11.736-36.137,11.925-36.418,11.925z"/>
	<path fill="#303A3F" d="M-31.48,14.952h-14.896c-0.401,0-0.733-0.189-0.733-0.42v-0.033c0-0.229,0.332-0.419,0.733-0.419h14.896
		c0.402,0,0.732,0.19,0.732,0.419v0.033C-30.74,14.763-31.072,14.952-31.48,14.952z"/>
	<path fill="#303A3F" d="M-31.48,17.88h-14.896c-0.401,0-0.733-0.189-0.733-0.42v-0.033c0-0.23,0.332-0.42,0.733-0.42h14.896
		c0.402,0,0.732,0.189,0.732,0.42v0.033C-30.74,17.69-31.072,17.88-31.48,17.88z"/>
	<path fill="#FFFFFF" d="M-26.558,7.317l-5.873,5.25c0,0-2.016,0.52-2.119,0.52c-0.105,0-1.391-0.52-1.564-0.777
		c-0.174-0.26-0.488-1.01-0.488-1.207c0-0.199,0.035-0.901,0-0.901c-0.033,0-0.033-0.479,0-0.702
		c0.035-0.222,0.592-1.812,0.592-1.812s0.277-0.812,0.312-0.924c0.035-0.11,1.008-0.961,1.182-1.072s1.807-0.998,1.807-0.998
		l1.117-0.48l1.107-0.407h3.197L-26.558,7.317z"/>
	<g>
		<path fill="#303A3F" d="M-34.683,7.403l-1.279,3.431c-0.066,0.181,0.031,0.327,0.227,0.319l3.623-0.124
			c0.074-0.005,0.143-0.024,0.215-0.063l0.004,0.006c0.01-0.006,0.02-0.016,0.029-0.021l3.346-2.427l-0.578-0.812l-3.02,2.193
			c-0.121,0.09-0.291,0.057-0.379-0.065l-0.137-0.192c-0.088-0.122-0.059-0.293,0.062-0.383l3.016-2.188l-0.568-0.803l-3.047,2.208
			c-0.111,0.079-0.258,0.053-0.338-0.06l-0.172-0.238c-0.078-0.111-0.051-0.262,0.057-0.342l3.053-2.207l-0.607-0.864l-3.234,2.347
			C-34.532,7.177-34.636,7.278-34.683,7.403z M-34.296,8.037l1.717,2.417c0.102,0.148-0.07,0.383-0.295,0.391l-1.977,0.035
			c-0.012-0.035-0.016-0.071-0.035-0.101l-0.512-0.721c-0.004-0.006,0-0.016-0.004-0.016l0.646-1.849
			C-34.679,7.983-34.397,7.889-34.296,8.037z"/>
		<path fill="#303A3F" d="M-30.94,4.586l0.385-0.282c0.719-0.522,1.723-0.351,2.24,0.376l0.791,1.117
			c0.516,0.725,0.344,1.741-0.373,2.264l-0.387,0.284L-30.94,4.586z"/>
	</g>
</g>
<g>
	<path fill="#333333" d="M15.807,15.973v0.859c0,0.705-0.571,1.285-1.27,1.285H7.01H6.713l-0.211,0.17l-2.749,2.148v-1.459v-0.859
		H2.906H2.061c-0.697,0-1.269-0.58-1.269-1.285V7.823c0-0.707,0.571-1.288,1.269-1.288h4.864V5.677H2.061
		c-1.162,0-2.114,0.966-2.114,2.146v9.009c0,1.178,0.952,2.145,2.114,2.145h0.846v3.217l4.104-3.217h7.527
		c1.164,0,2.115-0.967,2.115-2.145v-0.859H15.807z"/>
	<path fill="#333333" d="M21.939,3.602c0.697,0,1.268,0.557,1.268,1.236v8.65c0,0.682-0.57,1.236-1.268,1.236h-0.846h-0.847v0.824
		v1.422l-2.749-2.061l-0.211-0.186H16.99H9.463c-0.698,0-1.27-0.555-1.27-1.236v-8.65c0-0.68,0.571-1.236,1.27-1.236H21.939
		 M21.939,2.777H9.463c-1.164,0-2.115,0.927-2.115,2.061v8.65c0,1.135,0.951,2.061,2.115,2.061h7.527l4.104,3.09v-3.09h0.846
		c1.162,0,2.114-0.926,2.114-2.061v-8.65C24.054,3.704,23.102,2.777,21.939,2.777L21.939,2.777z"/>
</g>
</svg>
