<?xml version="1.0" encoding="utf-8"?>
<!-- Generator: Adobe Illustrator 15.1.0, SVG Export Plug-In . SVG Version: 6.00 Build 0)  -->
<!DOCTYPE svg PUBLIC "-//W3C//DTD SVG 1.1//EN" "http://www.w3.org/Graphics/SVG/1.1/DTD/svg11.dtd">
<svg version="1.1"
	 id="svg3117" sodipodi:docname="icon.svg" inkscape:version="0.48.2 r9819" xmlns:sodipodi="http://sodipodi.sourceforge.net/DTD/sodipodi-0.dtd" xmlns:inkscape="http://www.inkscape.org/namespaces/inkscape" xmlns:rdf="http://www.w3.org/1999/02/22-rdf-syntax-ns#" xmlns:svg="http://www.w3.org/2000/svg" xmlns:cc="http://creativecommons.org/ns#" xmlns:dc="http://purl.org/dc/elements/1.1/" inkscape:export-filename="C:\Users\ajay\Desktop\32x32 black in white\lti\icon.png" inkscape:export-xdpi="90" inkscape:export-ydpi="90"
	 xmlns="http://www.w3.org/2000/svg" xmlns:xlink="http://www.w3.org/1999/xlink" x="0px" y="0px" width="32px" height="32px"
	 viewBox="0 0 32 32" enable-background="new 0 0 32 32" xml:space="preserve">
<sodipodi:namedview  bordercolor="#666666" pagecolor="#ffffff" id="base" borderopacity="1.0" inkscape:pageopacity="0.0" inkscape:zoom="21.28125" inkscape:pageshadow="2" inkscape:cx="16.955634" inkscape:cy="16.14128" inkscape:current-layer="layer1" showgrid="true" inkscape:grid-bbox="true" inkscape:document-units="px" inkscape:snap-global="false" inkscape:window-width="1280" inkscape:window-height="949" inkscape:window-x="-9" inkscape:window-y="-9" inkscape:window-maximized="1">
	<inkscape:grid  type="xygrid" id="grid3125"></inkscape:grid>
</sodipodi:namedview>
<path d="M23.691,30.427H7.059c-1.413,0-2.559-1.146-2.559-2.56V3.559C4.5,2.146,5.646,1,7.059,1h12.137c0.002,0,0.004,0,0.006,0
	h0.012l0,0c0.205,0,0.38,0.103,0.496,0.253l6.289,6.288c0.149,0.117,0.252,0.292,0.252,0.496l0,0V8.05c0,0.001,0,0.002,0,0.003
	v19.814C26.25,29.28,25.104,30.427,23.691,30.427z M19.408,2v5.688h5.688L19.408,2z M25.439,8.333H19.4
	c-0.371,0-0.671-0.301-0.671-0.671V1.623H6.652c-0.741,0-1.342,0.601-1.342,1.342v25.496c0,0.74,0.601,1.343,1.342,1.343h17.445
	c0.74,0,1.342-0.603,1.342-1.343V8.333z M21.133,25H9.618c-0.354,0-0.64-0.217-0.64-0.485c0-0.268,0.286-0.485,0.64-0.485h11.515
	c0.354,0,0.64,0.218,0.64,0.485C21.772,24.783,21.486,25,21.133,25z M21.133,19.844H9.618c-0.354,0-0.64-0.208-0.64-0.466
	s0.286-0.466,0.64-0.466h11.515c0.354,0,0.64,0.208,0.64,0.466S21.486,19.844,21.133,19.844z M21.133,14.719H9.618
	c-0.354,0-0.64-0.207-0.64-0.462c0-0.255,0.286-0.462,0.64-0.462h11.515c0.354,0,0.64,0.208,0.64,0.462
	C21.772,14.512,21.486,14.719,21.133,14.719z"/>
</svg>
